Land_normalized_precision_landing03_filtered_grf
version=1
nRows=22
nColumns=37
inDegrees=yes
endheader
time		1_ground_force_vx		1_ground_force_vy		1_ground_force_vz		1_ground_force_px		1_ground_force_py		1_ground_force_pz		1_ground_torque_x		1_ground_torque_y		1_ground_torque_z		2_ground_force_vx		2_ground_force_vy		2_ground_force_vz		2_ground_force_px		2_ground_force_py		2_ground_force_pz		2_ground_torque_x		2_ground_torque_y		2_ground_torque_z		3_ground_force_vx		3_ground_force_vy		3_ground_force_vz		3_ground_force_px		3_ground_force_py		3_ground_force_pz		3_ground_torque_x		3_ground_torque_y		3_ground_torque_z		4_ground_force_vx		4_ground_force_vy		4_ground_force_vz		4_ground_force_px		4_ground_force_py		4_ground_force_pz		4_ground_torque_x		4_ground_torque_y		4_ground_torque_z		
1.144500		-43.959783		1176.199387		270.036312		0.129407		0.000000		0.297835		-0.919645		24.606261		5.649199		48.310921		1090.694344		216.364716		-0.124481		0.000000		0.290529		1.939959		43.797602		8.688278		10.617318		-1.886104		-5.265075		0.381128		1.275612		1.884812		-0.011630		0.002066		0.005767		-3.357891		-0.553709		4.527165		-0.351728		1.268322		1.872918		0.018878		0.003113		-0.025451		
1.147152		-46.674653		1136.675900		262.382671		0.129347		0.000000		0.296732		-0.924384		22.512762		5.196672		41.933604		1060.644278		215.843954		-0.122915		0.000000		0.288219		1.719530		43.493966		8.851199		10.474946		-1.859154		-5.312846		0.381154		1.275607		1.884781		-0.008679		0.001541		0.004401		-3.327626		-0.599348		4.622916		-0.351711		1.268323		1.872891		0.017446		0.003143		-0.024236		
1.149803		-49.974479		1095.020744		256.045100		0.129029		0.000000		0.294846		-0.925204		20.274059		4.740570		35.790611		1028.899634		217.139701		-0.121290		0.000000		0.285616		1.514817		43.549081		9.190734		10.372271		-1.816159		-5.330359		0.381178		1.275602		1.884752		-0.006298		0.001103		0.003236		-3.329161		-0.630166		4.722918		-0.351697		1.268319		1.872871		0.015577		0.002948		-0.022098		
1.152455		-53.674221		1052.311723		250.568261		0.128631		0.000000		0.292614		-0.923074		18.097816		4.309292		31.928504		997.556061		218.730077		-0.120083		0.000000		0.283176		1.401384		43.784296		9.600443		10.319876		-1.759284		-5.309724		0.381199		1.275601		1.884724		-0.004823		0.000823		0.002482		-3.360944		-0.647216		4.807610		-0.351683		1.268311		1.872857		0.013440		0.002588		-0.019225		
1.155106		-57.594652		1009.867011		245.688846		0.128388		0.000000		0.290619		-0.920567		16.142002		3.927123		30.881863		968.024469		219.267241		-0.119528		0.000000		0.281249		1.402432		43.960396		9.957519		10.311883		-1.693455		-5.249308		0.381213		1.275604		1.884694		-0.004240		0.000697		0.002159		-3.411967		-0.653584		4.862046		-0.351670		1.268301		1.872844		0.011216		0.002148		-0.015982		
1.157758		-61.568327		968.824702		241.499524		0.128474		0.000000		0.289305		-0.918769		14.458433		3.604008		31.765261		940.831318		217.863661		-0.119557		0.000000		0.279978		1.480119		43.837958		10.151369		10.331058		-1.628829		-5.154322		0.381222		1.275611		1.884661		-0.004266		0.000673		0.002129		-3.465422		-0.652811		4.883949		-0.351656		1.268291		1.872827		0.009150		0.001723		-0.012896		
1.160409		-65.449117		929.886759		238.314245		0.128922		0.000000		0.288759		-0.915982		13.014496		3.335363		33.112166		915.820995		214.344521		-0.119921		0.000000		0.279296		1.564973		43.284133		10.130495		10.359158		-1.579158		-5.035043		0.381225		1.275621		1.884625		-0.004581		0.000699		0.002227		-3.504903		-0.647968		4.885551		-0.351642		1.268281		1.872802		0.007556		0.001397		-0.010532		
1.163061		-69.116699		893.366049		236.375715		0.129623		0.000000		0.288725		-0.909524		11.756275		3.110568		33.770600		892.515106		209.324717		-0.120372		0.000000		0.278999		1.602327		42.347513		9.931912		10.386108		-1.556966		-4.905890		0.381225		1.275630		1.884586		-0.004998		0.000749		0.002361		-3.519073		-0.641245		4.888155		-0.351629		1.268272		1.872768		0.006732		0.001227		-0.009352		
1.165712		-72.492173		859.332500		235.665408		0.130397		0.000000		0.288765		-0.897300		10.637198		2.917112		33.446630		870.409223		204.088891		-0.120789		0.000000		0.278824		1.585788		41.268261		9.676361		10.415005		-1.567242		-4.784538		0.381223		1.275640		1.884546		-0.005519		0.000830		0.002535		-3.504538		-0.633319		4.911784		-0.351617		1.268261		1.872726		0.006842		0.001237		-0.009589		
1.168364		-75.548990		827.795173		235.921426		0.131074		0.000000		0.288488		-0.877682		9.617153		2.740837		32.670667		849.206749		200.158383		-0.121200		0.000000		0.278536		1.553773		40.387128		9.519267		10.459810		-1.604228		-4.688589		0.381220		1.275646		1.884506		-0.006259		0.000960		0.002805		-3.466627		-0.622754		4.964957		-0.351608		1.268250		1.872679		0.007845		0.001409		-0.011236		
1.171015		-78.277315		798.881454		236.809271		0.131555		0.000000		0.287689		-0.848128		8.655862		2.565815		32.256867		828.954274		198.743750		-0.121723		0.000000		0.277986		1.556428		39.997895		9.589596		10.536637		-1.654361		-4.631814		0.381219		1.275648		1.884470		-0.007310		0.001148		0.003214		-3.417193		-0.605795		5.041851		-0.351602		1.268237		1.872634		0.009572		0.001697		-0.014123		
1.173667		-80.629457		772.893014		238.024538		0.131820		0.000000		0.286386		-0.804941		7.716272		2.376285		32.717590		810.042133		200.284467		-0.122460		0.000000		0.277132		1.624377		40.216757		9.943771		10.653165		-1.701259		-4.620855		0.381220		1.275646		1.884436		-0.008651		0.001382		0.003752		-3.371019		-0.577282		5.125409		-0.351599		1.268223		1.872593		0.011813		0.002023		-0.017961		
1.176318		-82.488534		750.206565		239.288062		0.131926		0.000000		0.284802		-0.748330		6.806085		2.170829		33.911308		793.047907		204.143751		-0.123402		0.000000		0.276055		1.749220		40.906344		10.530123		10.799821		-1.731348		-4.651712		0.381224		1.275639		1.884407		-0.010134		0.001625		0.004365		-3.340019		-0.534224		5.195331		-0.351598		1.268212		1.872558		0.014328		0.002291		-0.022288		
1.178970		-83.679621		731.256752		240.319902		0.131956		0.000000		0.283245		-0.686235		5.996884		1.970803		35.188747		778.593007		208.894026		-0.124391		0.000000		0.274912		1.887118		41.754600		11.202659		10.950276		-1.737237		-4.711620		0.381227		1.275628		1.884382		-0.011544		0.001832		0.004967		-3.328296		-0.478768		5.237174		-0.351597		1.268203		1.872531		0.016839		0.002422		-0.026497		
1.181621		-84.038702		716.443007		240.824707		0.131977		0.000000		0.282014		-0.633457		5.400354		1.815258		35.783666		767.204789		212.802661		-0.125173		0.000000		0.273882		1.977838		42.404926		11.762069		11.066705		-1.717916		-4.782232		0.381230		1.275616		1.884360		-0.012641		0.001962		0.005462		-3.330055		-0.419067		5.247587		-0.351597		1.268198		1.872509		0.019001		0.002391		-0.029941		
1.184273		-83.501766		705.922522		240.572826		0.132023		0.000000		0.281307		-0.602289		5.091748		1.735224		35.269017		759.134891		214.539393		-0.125525		0.000000		0.273108		1.979745		42.612351		12.042701		11.112598		-1.677366		-4.845228		0.381229		1.275605		1.884341		-0.013204		0.001993		0.005757		-3.331131		-0.367592		5.235438		-0.351596		1.268195		1.872489		0.020455		0.002257		-0.032148		
1.186924		-82.103394		699.630634		239.480370		0.132093		0.000000		0.281167		-0.593656		5.058749		1.731587		33.759124		754.390542		213.683074		-0.125385		0.000000		0.272657		1.894183		42.327855		11.989476		11.065723		-1.621596		-4.887908		0.381224		1.275596		1.884323		-0.013067		0.001915		0.005772		-3.315228		-0.337794		5.214865		-0.351596		1.268197		1.872469		0.020926		0.002133		-0.032917		
1.189576		-79.926020		697.301321		237.623880		0.132151		0.000000		0.281476		-0.598879		5.224856		1.780505		31.806502		752.794158		210.782480		-0.124874		0.000000		0.272503		1.761377		41.687943		11.672647		10.927014		-1.558494		-4.905331		0.381214		1.275591		1.884309		-0.012130		0.001730		0.005446		-3.270401		-0.341119		5.196453		-0.351596		1.268199		1.872447		0.020297		0.002117		-0.032250		
1.192227		-77.064187		698.475518		235.201292		0.132123		0.000000		0.281990		-0.607843		5.509339		1.855175		30.106966		754.016888		207.038350		-0.124229		0.000000		0.272549		1.634780		40.942037		11.241930		10.724965		-1.499353		-4.900663		0.381197		1.275591		1.884295		-0.010418		0.001457		0.004760		-3.194617		-0.383757		5.181065		-0.351598		1.268203		1.872426		0.018670		0.002242		-0.030278		
1.194879		-73.621494		702.622957		232.434481		0.131918		0.000000		0.282439		-0.615475		5.874048		1.943177		29.147155		757.662307		203.657327		-0.123655		0.000000		0.272675		1.551373		40.326866		10.839767		10.508016		-1.458680		-4.882840		0.381175		1.275595		1.884285		-0.008093		0.001123		0.003761		-3.097247		-0.464490		5.159816		-0.351605		1.268209		1.872407		0.016359		0.002453		-0.027253		
1.197530		-69.730949		709.290235		229.496014		0.131478		0.000000		0.282650		-0.620548		6.312155		2.042337		29.021081		763.349654		201.301420		-0.123234		0.000000		0.272798		1.519259		39.961488		10.538169		10.328763		-1.451359		-4.862164		0.381152		1.275601		1.884278		-0.005452		0.000766		0.002566		-2.995570		-0.574532		5.119915		-0.351614		1.268216		1.872392		0.013806		0.002648		-0.023596		
1.200182		-65.571017		718.148412		226.494712		0.130831		0.000000		0.282622		-0.622216		6.814925		2.149309		29.443223		770.710252		199.877710		-0.122918		0.000000		0.272906		1.520768		39.807886		10.323884		10.227702		-1.487388		-4.846163		0.381128		1.275609		1.884273		-0.002889		0.000420		0.001369		-2.908935		-0.698605		5.051918		-0.351628		1.268229		1.872384		0.011490		0.002759		-0.019955		
